<?xml version="1.0" encoding="UTF-8" standalone="no"?>
<!-- Created with Inkscape (http://www.inkscape.org/) -->

<svg
   width="500"
   height="500"
   viewBox="0 0 132.29166 132.29167"
   version="1.1"
   id="svg1"
   xml:space="preserve"
   sodipodi:docname="numbat.svg"
   inkscape:version="1.4 (e7c3feb1, 2024-10-09)"
   xmlns:inkscape="http://www.inkscape.org/namespaces/inkscape"
   xmlns:sodipodi="http://sodipodi.sourceforge.net/DTD/sodipodi-0.dtd"
   xmlns="http://www.w3.org/2000/svg"
   xmlns:svg="http://www.w3.org/2000/svg"><sodipodi:namedview
     id="namedview1"
     pagecolor="#ffffff"
     bordercolor="#000000"
     borderopacity="0.25"
     inkscape:showpageshadow="2"
     inkscape:pageopacity="0.0"
     inkscape:pagecheckerboard="0"
     inkscape:deskcolor="#d1d1d1"
     inkscape:document-units="mm"
     inkscape:zoom="0.22471766"
     inkscape:cx="-1412.884"
     inkscape:cy="-126.82581"
     inkscape:window-width="2560"
     inkscape:window-height="1284"
     inkscape:window-x="0"
     inkscape:window-y="30"
     inkscape:window-maximized="1"
     inkscape:current-layer="layer2" /><defs
     id="defs1" /><g
     inkscape:groupmode="layer"
     id="layer2"
     inkscape:label="Layer 2"
     style="display:inline"><ellipse
       style="fill:#ffe6d5;stroke-width:1.18277;stroke-opacity:0"
       id="path8"
       cx="66.145828"
       cy="66.145798"
       rx="56.885418"
       ry="56.885384" /><g
       id="g8"
       transform="matrix(0.90654372,0,0,0.90654372,2.8326684,8.2215458)"><path
         style="display:inline;fill:#d45500;stroke-width:1.21179;stroke-opacity:0"
         d="m 32.967295,53.571854 c 0,0 3.82656,-1.177404 4.41526,-7.358772 0.588704,-6.181368 -3.679384,-5.592667 -0.441524,-14.12884 3.237859,-8.536175 1.618928,-7.064421 4.562436,-12.068385 2.943511,-5.003964 -10.89098,6.77007 -11.47968,12.951438 -0.588704,6.181367 2.943508,20.604559 2.943508,20.604559 z"
         id="path1"
         sodipodi:nodetypes="cssssc" /><path
         style="fill:#552200;stroke-width:1.21179;stroke-opacity:0"
         d="M 43.269574,59.164518 C 52.100098,59.45887 79.474726,70.644202 90.954409,82.123885 102.43409,93.603566 59.45887,76.531218 52.39445,71.232902 45.33003,65.934589 43.269574,59.164518 43.269574,59.164518 Z"
         id="path2" /><path
         style="fill:#d45500;stroke-width:1.21179;stroke-opacity:0"
         d="M 61.519326,36.205154 C 70.699507,21.258555 81.185349,19.427155 80.357778,13.83449 c -0.565678,-3.822813 0.326404,-2.344412 1.466559,-0.878262 0.618312,0.795104 0.82208,1.106218 0.888248,1.761314 0.24956,2.470783 -1.133865,2.990765 -4.139425,6.566909 -3.415189,4.063537 -4.781545,10.651967 -7.928958,11.977193 -5.592668,2.354807 -9.124876,2.94351 -9.124876,2.94351 z"
         id="path3"
         sodipodi:nodetypes="csssssc" /><path
         style="fill:#d45500;stroke-width:1.21179;stroke-opacity:0"
         d="m 57.398414,79.474726 c 8.241824,3.826563 26.491575,11.185331 33.261643,12.951438 6.770071,1.766105 15.600593,5.739839 15.600593,5.739839 0,0 4.41527,5.592667 -23.842414,-1.324578 -10.108417,-2.474457 -20.89891,-5.887016 -27.080278,-3.82656 -6.181368,2.060456 -15.011892,-1.177404 -13.540139,-7.65312 1.471755,-6.47572 5.592667,-9.419228 7.358771,-9.419228 1.766105,0 8.241824,3.532209 8.241824,3.532209 z"
         id="path5"
         sodipodi:nodetypes="cscssssc" /><path
         style="fill:#000000;stroke-width:1.21179;stroke-opacity:0"
         d="m 112.14766,88.893953 c 8.58968,5.452379 5.43586,10.806953 0.47833,11.553277 -8.83025,1.32931 -13.871283,-1.103827 -6.80686,-7.138013 3.22793,-2.757185 2.98924,-6.534911 6.32853,-4.415264 z"
         id="path6"
         sodipodi:nodetypes="ssss" /><path
         style="fill:#803300;stroke-width:1.21179;stroke-opacity:0"
         d="m 69.466798,38.26561 c 7.06442,10.596629 7.653123,20.310208 12.362735,24.136768 4.709613,3.82656 3.82656,20.604559 3.82656,20.604559 0,0 -6.475716,5.592665 1.177404,10.596629 7.653123,5.003966 11.933558,4.912868 16.115713,6.328542 6.56683,2.222902 2.76704,-4.547657 4.09508,-6.931633 1.78907,-3.211599 8.91858,-1.776564 3.04292,-5.578277 C 106.17972,84.893941 98.901881,77.708621 97.430128,72.115954 95.958373,66.52329 93.897917,57.987114 91.248761,55.337958 88.599602,52.688799 69.466798,38.26561 69.466798,38.26561 Z"
         id="path4"
         sodipodi:nodetypes="cscssssssc" /><ellipse
         style="fill:#000000;stroke-width:1.21179;stroke-opacity:0"
         id="path7"
         cx="63.138256"
         cy="68.730919"
         rx="7.2115955"
         ry="6.9172444" /></g></g></svg>
