<?xml version="1.0" encoding="UTF-8" standalone="no"?>
<!-- Created with Inkscape (http://www.inkscape.org/) -->

<svg
   width="400"
   height="400"
   viewBox="0 0 400 400"
   version="1.1"
   id="svg1"
   xml:space="preserve"
   inkscape:version="1.3.2 (091e20ef0f, 2023-11-25, custom)"
   sodipodi:docname="numbat.svg"
   xmlns:inkscape="http://www.inkscape.org/namespaces/inkscape"
   xmlns:sodipodi="http://sodipodi.sourceforge.net/DTD/sodipodi-0.dtd"
   xmlns:xlink="http://www.w3.org/1999/xlink"
   xmlns="http://www.w3.org/2000/svg"
   xmlns:svg="http://www.w3.org/2000/svg"><sodipodi:namedview
     id="namedview1"
     pagecolor="#ffffff"
     bordercolor="#666666"
     borderopacity="1.0"
     inkscape:showpageshadow="2"
     inkscape:pageopacity="0.0"
     inkscape:pagecheckerboard="0"
     inkscape:deskcolor="#d1d1d1"
     inkscape:document-units="px"
     inkscape:zoom="1.1402918"
     inkscape:cx="-148.20768"
     inkscape:cy="91.204727"
     inkscape:window-width="2560"
     inkscape:window-height="1526"
     inkscape:window-x="0"
     inkscape:window-y="0"
     inkscape:window-maximized="1"
     inkscape:current-layer="layer2" /><defs
     id="defs1"><linearGradient
       id="linearGradient45"
       inkscape:collect="always"><stop
         style="stop-color:#211a0a;stop-opacity:1;"
         offset="0.27803057"
         id="stop46" /><stop
         style="stop-color:#b6a477;stop-opacity:1;"
         offset="0.72588956"
         id="stop48" /><stop
         style="stop-color:#211a0a;stop-opacity:1;"
         offset="0.72588956"
         id="stop47" /></linearGradient><linearGradient
       id="linearGradient38"
       inkscape:collect="always"><stop
         style="stop-color:#211a0a;stop-opacity:1;"
         offset="0"
         id="stop38" /><stop
         style="stop-color:#e8e1c6;stop-opacity:1;"
         offset="1"
         id="stop39" /></linearGradient><linearGradient
       id="linearGradient36"
       inkscape:collect="always"><stop
         style="stop-color:#211a0a;stop-opacity:1;"
         offset="0"
         id="stop36" /><stop
         style="stop-color:#e8e1c6;stop-opacity:1;"
         offset="1"
         id="stop37" /></linearGradient><linearGradient
       id="linearGradient34"
       inkscape:collect="always"><stop
         style="stop-color:#211a0a;stop-opacity:1;"
         offset="0"
         id="stop34" /><stop
         style="stop-color:#e8e1c6;stop-opacity:1;"
         offset="1"
         id="stop35" /></linearGradient><linearGradient
       id="linearGradient29"
       inkscape:collect="always"><stop
         style="stop-color:#e8e1c6;stop-opacity:1;"
         offset="0"
         id="stop29" /><stop
         style="stop-color:#e8e1c6;stop-opacity:0;"
         offset="1"
         id="stop30" /></linearGradient><linearGradient
       id="linearGradient27"
       inkscape:collect="always"><stop
         style="stop-color:#e8e1c6;stop-opacity:1;"
         offset="0"
         id="stop27" /><stop
         style="stop-color:#e8e1c6;stop-opacity:0;"
         offset="1"
         id="stop28" /></linearGradient><linearGradient
       id="linearGradient25"
       inkscape:collect="always"><stop
         style="stop-color:#e8e1c6;stop-opacity:1;"
         offset="0"
         id="stop25" /><stop
         style="stop-color:#e8e1c6;stop-opacity:0;"
         offset="1"
         id="stop26" /></linearGradient><linearGradient
       id="linearGradient23"
       inkscape:collect="always"><stop
         style="stop-color:#e8e1c6;stop-opacity:1;"
         offset="0"
         id="stop23" /><stop
         style="stop-color:#e8e1c6;stop-opacity:0;"
         offset="1"
         id="stop24" /></linearGradient><linearGradient
       id="linearGradient21"
       inkscape:collect="always"><stop
         style="stop-color:#e8e1c6;stop-opacity:1;"
         offset="0"
         id="stop21" /><stop
         style="stop-color:#e8e1c6;stop-opacity:0;"
         offset="1"
         id="stop22" /></linearGradient><linearGradient
       id="linearGradient19"
       inkscape:collect="always"><stop
         style="stop-color:#e8e1c6;stop-opacity:1;"
         offset="0"
         id="stop19" /><stop
         style="stop-color:#e8e1c6;stop-opacity:0;"
         offset="1"
         id="stop20" /></linearGradient><linearGradient
       id="linearGradient17"
       inkscape:collect="always"><stop
         style="stop-color:#e8e1c6;stop-opacity:1;"
         offset="0"
         id="stop17" /><stop
         style="stop-color:#e8e1c6;stop-opacity:0;"
         offset="1"
         id="stop18" /></linearGradient><linearGradient
       id="linearGradient10"
       inkscape:collect="always"><stop
         style="stop-color:#211a0a;stop-opacity:1;"
         offset="0"
         id="stop10" /><stop
         style="stop-color:#e8e1c6;stop-opacity:1;"
         offset="1"
         id="stop11" /></linearGradient><linearGradient
       inkscape:collect="always"
       xlink:href="#linearGradient10"
       id="linearGradient11"
       x1="204.98062"
       y1="114.46105"
       x2="266.55115"
       y2="101.30652"
       gradientUnits="userSpaceOnUse"
       gradientTransform="translate(16.668856,74.902902)" /><linearGradient
       inkscape:collect="always"
       xlink:href="#linearGradient17"
       id="linearGradient18"
       x1="172.85484"
       y1="182.03618"
       x2="205.14292"
       y2="182.03618"
       gradientUnits="userSpaceOnUse"
       gradientTransform="translate(-5.5041955,-6.4156479)" /><linearGradient
       inkscape:collect="always"
       xlink:href="#linearGradient19"
       id="linearGradient20"
       x1="189.41545"
       y1="182.92405"
       x2="220.35737"
       y2="182.92405"
       gradientUnits="userSpaceOnUse"
       gradientTransform="translate(-5.5041955,-6.4156479)" /><linearGradient
       inkscape:collect="always"
       xlink:href="#linearGradient21"
       id="linearGradient22"
       x1="204.54669"
       y1="170.64042"
       x2="225.20118"
       y2="170.64042"
       gradientUnits="userSpaceOnUse"
       gradientTransform="translate(-5.5041955,-6.4156479)" /><linearGradient
       inkscape:collect="always"
       xlink:href="#linearGradient23"
       id="linearGradient24"
       x1="216.55115"
       y1="161.39152"
       x2="230.69854"
       y2="161.39152"
       gradientUnits="userSpaceOnUse"
       gradientTransform="translate(-5.5041955,-6.4156479)" /><linearGradient
       inkscape:collect="always"
       xlink:href="#linearGradient25"
       id="linearGradient26"
       x1="231.14232"
       y1="164.64943"
       x2="238.37768"
       y2="164.64943"
       gradientUnits="userSpaceOnUse"
       gradientTransform="translate(-5.5041955,-6.4156479)" /><linearGradient
       inkscape:collect="always"
       xlink:href="#linearGradient27"
       id="linearGradient28"
       x1="246.69641"
       y1="163.51919"
       x2="256.59311"
       y2="163.51919"
       gradientUnits="userSpaceOnUse"
       gradientTransform="translate(-5.5041955,-6.4156479)" /><linearGradient
       inkscape:collect="always"
       xlink:href="#linearGradient29"
       id="linearGradient30"
       x1="259.09402"
       y1="164.57083"
       x2="266.00408"
       y2="164.57083"
       gradientUnits="userSpaceOnUse"
       gradientTransform="translate(-5.5041955,-6.4156479)" /><linearGradient
       inkscape:collect="always"
       xlink:href="#linearGradient34"
       id="linearGradient35"
       x1="321.82147"
       y1="203.47861"
       x2="325.68359"
       y2="188.35089"
       gradientUnits="userSpaceOnUse" /><linearGradient
       inkscape:collect="always"
       xlink:href="#linearGradient36"
       id="linearGradient37"
       x1="269.63315"
       y1="213.7814"
       x2="312.4507"
       y2="213.7814"
       gradientUnits="userSpaceOnUse" /><linearGradient
       inkscape:collect="always"
       xlink:href="#linearGradient38"
       id="linearGradient39"
       x1="196.38428"
       y1="248.47255"
       x2="231.27777"
       y2="225.21841"
       gradientUnits="userSpaceOnUse" /><linearGradient
       inkscape:collect="always"
       xlink:href="#linearGradient10"
       id="linearGradient50"
       x1="164.72517"
       y1="239.19035"
       x2="198.3074"
       y2="234.22948"
       gradientUnits="userSpaceOnUse" /><radialGradient
       inkscape:collect="always"
       xlink:href="#linearGradient45"
       id="radialGradient50"
       cx="93.95723"
       cy="188.55447"
       fx="93.95723"
       fy="188.55447"
       r="72.635582"
       gradientTransform="matrix(2.0898746,0.49139118,-0.24762829,1.0531571,-49.629821,-46.075577)"
       gradientUnits="userSpaceOnUse" /></defs><g
     inkscape:groupmode="layer"
     id="layer2"
     inkscape:label="Layer 2"
     style="display:inline"><path
       style="fill:#554400;stroke:#000000;stroke-width:1px;stroke-linecap:butt;stroke-linejoin:miter;stroke-opacity:1;fill-opacity:1"
       d="M 0,349.742 C 65.043055,335.54578 117.17199,290.85885 200.56715,257.21478 269.69863,229.32511 342.7969,222.12506 400,182 V 400 H 0 Z"
       id="path1"
       sodipodi:nodetypes="cscccc" /></g><g
     inkscape:groupmode="layer"
     id="layer3"
     inkscape:label="Layer 3"><path
       style="fill:url(#radialGradient50);stroke:#000000;stroke-width:1px;stroke-linecap:butt;stroke-linejoin:miter;stroke-opacity:1;fill-opacity:1"
       d="m 168.67002,222.92968 c 0,0 -76.583629,25.42452 -94.256775,19.22342 -6.254391,-2.19452 -27.904967,-14.26254 -36.586512,-23.25414 -8.681545,-8.9916 -9.921766,-25.73458 -7.75138,-23.87425 2.170387,1.86033 22.634029,14.5726 26.044636,17.05304 3.410607,2.48044 23.87425,3.72066 41.23734,0.93016 17.363091,-2.79049 29.765301,-13.64242 41.237341,-18.60331 11.47204,-4.96088 24.80441,-16.74298 34.72618,-23.56419 z"
       id="path3"
       sodipodi:nodetypes="cssssssc" /><path
       style="fill:url(#linearGradient50);stroke:#000000;stroke-width:1px;stroke-linecap:butt;stroke-linejoin:miter;stroke-opacity:1"
       d="m 196.88504,217.65874 c -3.87157,12.61079 -26.13647,11.14489 -23.56419,21.08376 1.55028,6.2011 4.65083,12.4022 7.75138,12.71226 3.10055,0.31005 9.30166,0.93016 13.64243,2.17038 4.34077,1.24022 7.13127,3.41061 2.79049,5.581 -4.34077,2.17038 -14.57259,7.13127 -17.9832,6.51116 -3.4106,-0.62011 -10.85193,-1.55028 -13.95248,-4.96089 -3.10055,-3.4106 -6.2011,-12.71226 -6.82121,-20.46364 -0.62011,-7.75138 7.75138,-30.07535 7.75138,-30.07535 z"
       id="path4"
       sodipodi:nodetypes="cssssssscc" /><path
       style="fill:url(#linearGradient35);stroke:#000000;stroke-width:1px;stroke-linecap:butt;stroke-linejoin:miter;stroke-opacity:1"
       d="m 314.70602,178.28173 c 0.62011,3.72067 0.31005,6.82122 4.65082,6.82122 4.34078,0 12.71227,2.79049 17.05304,5.27094 4.34077,2.48044 20.15359,12.71226 23.25414,13.64242 3.10055,0.93017 2.48044,4.65083 -2.17039,4.65083 -4.65083,0 -19.84353,4.96088 -23.56419,3.41061 -3.72066,-1.55028 -6.82122,-3.41061 -10.85193,-4.96088 -4.03072,-1.55028 -8.68155,0.31005 -11.7821,0 -3.10055,-0.31006 -0.31006,1.55027 -8.68155,-3.41061 -8.37149,-4.96088 -13.33237,-7.13127 -13.33237,-7.13127 z"
       id="path5" /><path
       style="fill:url(#linearGradient37);stroke:#000000;stroke-width:1px;stroke-linecap:butt;stroke-linejoin:miter;stroke-opacity:1"
       d="m 270.36812,204.01631 c 0.62011,4.34078 -1.24022,12.40221 0.62011,17.05304 1.86034,4.65083 1.16096,5.41237 4.34078,7.44132 3.72066,2.37405 14.35335,-0.23482 19.31423,-1.47504 4.96089,-1.24022 19.75272,-5.03612 16.96222,-7.2065 -2.79049,-2.17039 -4.65082,-2.7905 -10.85193,-3.10055 -6.2011,-0.31006 -8.17428,2.67764 -10.65472,-3.83351 -2.48044,-6.51116 -2.58684,-10.17863 -2.58684,-13.89929 0,-3.72066 -17.14385,5.02053 -17.14385,5.02053 z"
       id="path6"
       sodipodi:nodetypes="csssssssc" /><path
       style="fill:url(#linearGradient39);stroke:#000000;stroke-width:1px;stroke-linecap:butt;stroke-linejoin:miter;stroke-opacity:1"
       d="m 221.68946,217.65874 c -1.24022,8.06144 -10.23182,9.30166 -13.33237,13.64243 -3.10055,4.34077 -8.9916,5.58099 -7.44132,8.68155 1.55027,3.10055 5.27093,3.72066 9.61171,4.65082 4.34077,0.93017 6.51116,4.34078 6.51116,4.34078 -3.35653,2.39061 -3.76164,5.51907 -16.43293,5.58099 0,0 -15.1927,-3.10055 -15.1927,-7.44132 0,-4.34078 -2.7905,-10.23183 0,-13.95249 2.79049,-3.72066 10.23182,-11.78209 10.23182,-11.78209 z"
       id="path7"
       sodipodi:nodetypes="csssccsscc" /><path
       style="fill:url(#linearGradient11);stroke:#000000;stroke-width:1px;stroke-linecap:butt;stroke-linejoin:miter;stroke-opacity:1"
       d="m 368.3676,193.70013 c -11.47204,-17.05303 -11.7821,-23.87425 -17.67315,-29.45525 -5.89104,-5.58099 -17.36309,-13.33237 -28.21502,-13.64243 -10.85193,-0.31005 -11.47204,-2.79049 -18.60331,-6.51116 -5.667,-2.9567 -30.38541,-4.65082 -35.65635,-4.65082 -5.27093,0 -24.15509,-3.11129 -35.34629,-2.17039 -11.46832,0.96421 -43.83119,12.72945 -50.22894,17.67315 -6.82122,5.27093 -16.43292,16.74298 -19.84353,23.87426 -2.04198,4.2696 -5.89105,17.36309 -4.96088,22.63402 0.93016,5.27094 3.4106,11.7821 8.37149,16.74298 4.96088,4.96089 16.43292,7.75138 23.56419,7.13127 7.13127,-0.62011 37.51668,-7.13126 41.85745,-8.99159 4.34077,-1.86033 41.85745,-13.64243 51.46916,-15.50277 9.61171,-1.86033 41.75095,-5.05946 47.7485,-5.58099 7.13127,-0.62011 31.5583,2.80188 33.17591,3.72066 6.89696,3.91738 6.48745,-3.6013 4.34077,-5.27094 z"
       id="path2"
       sodipodi:nodetypes="cssssssssssssssc" /><path
       style="fill:url(#linearGradient18);stroke:#000000;stroke-width:1px;stroke-linecap:butt;stroke-linejoin:miter;stroke-opacity:1"
       d="m 168.13557,167.88184 6.13878,-5.91954 24.99361,27.62451 z"
       id="path11" /><path
       style="fill:url(#linearGradient20);stroke:#000000;stroke-width:1px;stroke-linecap:butt;stroke-linejoin:miter;stroke-opacity:1"
       d="m 184.57873,154.28883 6.13878,-4.38484 23.67815,53.71432 z"
       id="path12" /><path
       style="fill:url(#linearGradient22);stroke:#000000;stroke-width:1px;stroke-linecap:butt;stroke-linejoin:miter;stroke-opacity:1"
       d="m 199.70644,147.71156 6.79651,-3.94635 12.71604,41.43676 z"
       id="path13" /><path
       style="fill:url(#linearGradient24);stroke:#000000;stroke-width:1px;stroke-linecap:butt;stroke-linejoin:miter;stroke-opacity:1"
       d="m 211.76476,141.57279 8.3312,-1.5347 4.60408,30.25541 z"
       id="path14" /><path
       style="fill:url(#linearGradient26);stroke:#000000;stroke-width:1px;stroke-linecap:butt;stroke-linejoin:miter;stroke-opacity:1"
       d="m 226.45398,139.59961 5.91954,38.14813 -0.43849,-38.58662 -6.13878,0.21924 z"
       id="path15" /><path
       style="fill:url(#linearGradient28);stroke:#000000;stroke-width:1px;stroke-linecap:butt;stroke-linejoin:miter;stroke-opacity:1"
       d="m 241.80093,139.81885 5.91954,35.07874 c 0,0 3.06939,-16.22392 2.85014,-17.53937 -0.21924,-1.31545 -4.60408,-16.88165 -4.60408,-16.88165 z"
       id="path16" /><path
       style="fill:url(#linearGradient30);stroke:#000000;stroke-width:1px;stroke-linecap:butt;stroke-linejoin:miter;stroke-opacity:1"
       d="m 254.07849,145.08066 5.70029,26.30905 0.21924,-16.88164 z"
       id="path17" /><path
       style="fill:#e8e1c6;stroke:#000000;stroke-width:1px;stroke-linecap:butt;stroke-linejoin:miter;stroke-opacity:1;fill-opacity:1"
       d="m 327.76698,163.33538 c -0.43849,-6.35802 -1.31545,-6.35802 1.31545,-12.4968 2.63091,-6.13878 8.76969,-6.57726 8.76969,-10.74286 0,-4.1656 4.38484,3.72711 4.38484,3.72711 0,0 2.6309,7.45424 0.87697,10.08514 -1.75394,2.63091 -4.38484,7.01575 -4.1656,10.52362 0.21924,3.50788 -1.09621,7.67348 -1.09621,7.67348 z"
       id="path32" /><path
       style="fill:#211a0a;stroke:#000000;stroke-width:1px;stroke-linecap:butt;stroke-linejoin:miter;stroke-opacity:1;fill-opacity:1"
       d="m 323.38214,159.82751 c 0,0 5.48105,6.35802 7.23499,9.20817 1.75393,2.85015 6.57726,6.57726 9.64665,8.11196 3.06939,1.53469 8.3312,3.50787 9.64665,5.04257 1.31546,1.53469 3.28864,4.82332 5.04257,7.23499 1.75394,2.41166 5.91954,2.85014 5.91954,2.85014 0,0 -3.06939,-5.04256 -5.26181,-7.89271 -2.19242,-2.85015 -3.28863,-4.82333 -6.35802,-6.79651 -3.06939,-1.97318 -6.13878,-1.75393 -9.8659,-5.04257 -3.72711,-3.28863 -10.52362,-12.71604 -12.4968,-13.37377 -1.97318,-0.65772 -3.50787,0.65773 -3.50787,0.65773 z"
       id="path31" /><path
       style="fill:#211a0a;stroke:#000000;stroke-width:1px;stroke-linecap:butt;stroke-linejoin:miter;stroke-opacity:1;fill-opacity:1"
       d="m 332.59031,165.74705 c 0.43848,-3.28863 0,-11.18135 1.09621,-12.71605 1.09621,-1.53469 4.38484,-5.91953 4.1656,-7.01574 -0.21925,-1.09621 1.75393,1.09621 1.53469,3.28863 -0.21924,2.19242 -1.53469,3.94636 -2.19242,6.13878 -0.65773,2.19242 -1.53469,8.3312 -1.53469,10.08514 0,1.75393 -3.06939,0.21924 -3.06939,0.21924 z"
       id="path33" /><path
       style="fill:#000000;stroke:#000000;stroke-width:1px;stroke-linecap:butt;stroke-linejoin:miter;stroke-opacity:1;fill-opacity:1"
       d="m 342.76601,178.12671 c 0.31006,-2.01536 1.08519,-4.96089 3.41061,-4.96089 2.32541,0 4.96088,1.39525 4.96088,2.94553 0,1.55027 0.46508,5.42596 -1.7053,5.73602 -2.17039,0.31005 -6.66619,-3.72066 -6.66619,-3.72066 z"
       id="path34" /></g></svg>
