<?xml version="1.0" encoding="UTF-8" standalone="no"?>
<!-- Created with Inkscape (http://www.inkscape.org/) -->

<svg
   width="400"
   height="400"
   viewBox="0 0 400 400"
   version="1.1"
   id="svg1"
   xml:space="preserve"
   inkscape:version="1.3.2 (091e20ef0f, 2023-11-25, custom)"
   sodipodi:docname="numbat.svg"
   xmlns:inkscape="http://www.inkscape.org/namespaces/inkscape"
   xmlns:sodipodi="http://sodipodi.sourceforge.net/DTD/sodipodi-0.dtd"
   xmlns:xlink="http://www.w3.org/1999/xlink"
   xmlns="http://www.w3.org/2000/svg"
   xmlns:svg="http://www.w3.org/2000/svg"><sodipodi:namedview
     id="namedview1"
     pagecolor="#ffffff"
     bordercolor="#666666"
     borderopacity="1.0"
     inkscape:showpageshadow="2"
     inkscape:pageopacity="0.0"
     inkscape:pagecheckerboard="0"
     inkscape:deskcolor="#d1d1d1"
     inkscape:document-units="px"
     inkscape:zoom="1.6126161"
     inkscape:cx="259.82625"
     inkscape:cy="336.09983"
     inkscape:window-width="2560"
     inkscape:window-height="1526"
     inkscape:window-x="0"
     inkscape:window-y="0"
     inkscape:window-maximized="1"
     inkscape:current-layer="layer3" /><defs
     id="defs1"><linearGradient
       id="linearGradient1"
       inkscape:collect="always"><stop
         style="stop-color:#c89a00;stop-opacity:1;"
         offset="0"
         id="stop1" /><stop
         style="stop-color:#75664f;stop-opacity:1;"
         offset="1"
         id="stop2" /></linearGradient><linearGradient
       id="linearGradient45"
       inkscape:collect="always"><stop
         style="stop-color:#211a0a;stop-opacity:1;"
         offset="0.27803057"
         id="stop46" /><stop
         style="stop-color:#b6a477;stop-opacity:1;"
         offset="0.72588956"
         id="stop48" /><stop
         style="stop-color:#211a0a;stop-opacity:1;"
         offset="0.72588956"
         id="stop47" /></linearGradient><linearGradient
       id="linearGradient38"
       inkscape:collect="always"><stop
         style="stop-color:#211a0a;stop-opacity:1;"
         offset="0"
         id="stop38" /><stop
         style="stop-color:#e8e1c6;stop-opacity:1;"
         offset="1"
         id="stop39" /></linearGradient><linearGradient
       id="linearGradient36"
       inkscape:collect="always"><stop
         style="stop-color:#211a0a;stop-opacity:1;"
         offset="0"
         id="stop36" /><stop
         style="stop-color:#e8e1c6;stop-opacity:1;"
         offset="1"
         id="stop37" /></linearGradient><linearGradient
       id="linearGradient34"
       inkscape:collect="always"><stop
         style="stop-color:#211a0a;stop-opacity:1;"
         offset="0"
         id="stop34" /><stop
         style="stop-color:#e8e1c6;stop-opacity:1;"
         offset="1"
         id="stop35" /></linearGradient><linearGradient
       id="linearGradient29"
       inkscape:collect="always"><stop
         style="stop-color:#e8e1c6;stop-opacity:1;"
         offset="0"
         id="stop29" /><stop
         style="stop-color:#e8e1c6;stop-opacity:0;"
         offset="1"
         id="stop30" /></linearGradient><linearGradient
       id="linearGradient27"
       inkscape:collect="always"><stop
         style="stop-color:#e8e1c6;stop-opacity:1;"
         offset="0"
         id="stop27" /><stop
         style="stop-color:#e8e1c6;stop-opacity:0;"
         offset="1"
         id="stop28" /></linearGradient><linearGradient
       id="linearGradient25"
       inkscape:collect="always"><stop
         style="stop-color:#e8e1c6;stop-opacity:1;"
         offset="0"
         id="stop25" /><stop
         style="stop-color:#e8e1c6;stop-opacity:0;"
         offset="1"
         id="stop26" /></linearGradient><linearGradient
       id="linearGradient23"
       inkscape:collect="always"><stop
         style="stop-color:#e8e1c6;stop-opacity:1;"
         offset="0"
         id="stop23" /><stop
         style="stop-color:#e8e1c6;stop-opacity:0;"
         offset="1"
         id="stop24" /></linearGradient><linearGradient
       id="linearGradient21"
       inkscape:collect="always"><stop
         style="stop-color:#e8e1c6;stop-opacity:1;"
         offset="0"
         id="stop21" /><stop
         style="stop-color:#000000;stop-opacity:0.00350467"
         offset="1"
         id="stop22" /></linearGradient><linearGradient
       id="linearGradient19"
       inkscape:collect="always"><stop
         style="stop-color:#e8e1c6;stop-opacity:1;"
         offset="0"
         id="stop19" /><stop
         style="stop-color:#e8e1c6;stop-opacity:0;"
         offset="1"
         id="stop20" /></linearGradient><linearGradient
       id="linearGradient17"
       inkscape:collect="always"><stop
         style="stop-color:#e8e1c6;stop-opacity:1;"
         offset="0"
         id="stop17" /><stop
         style="stop-color:#e8e1c6;stop-opacity:0;"
         offset="1"
         id="stop18" /></linearGradient><linearGradient
       id="linearGradient10"
       inkscape:collect="always"><stop
         style="stop-color:#211a0a;stop-opacity:1;"
         offset="0"
         id="stop10" /><stop
         style="stop-color:#e8e1c6;stop-opacity:1;"
         offset="1"
         id="stop11" /></linearGradient><linearGradient
       inkscape:collect="always"
       xlink:href="#linearGradient10"
       id="linearGradient11"
       x1="204.98062"
       y1="114.46105"
       x2="266.55115"
       y2="101.30652"
       gradientUnits="userSpaceOnUse"
       gradientTransform="translate(16.668856,74.902902)" /><linearGradient
       inkscape:collect="always"
       xlink:href="#linearGradient17"
       id="linearGradient18"
       x1="177.19562"
       y1="171.02922"
       x2="201.57729"
       y2="193.04314"
       gradientUnits="userSpaceOnUse"
       gradientTransform="translate(-5.5041955,-6.4156479)" /><linearGradient
       inkscape:collect="always"
       xlink:href="#linearGradient19"
       id="linearGradient20"
       x1="192.51601"
       y1="158.27467"
       x2="219.58224"
       y2="206.64328"
       gradientUnits="userSpaceOnUse"
       gradientTransform="translate(-5.5041955,-6.4156479)" /><linearGradient
       inkscape:collect="always"
       xlink:href="#linearGradient21"
       id="linearGradient22"
       x1="208.26735"
       y1="151.57204"
       x2="222.72075"
       y2="187.38341"
       gradientUnits="userSpaceOnUse"
       gradientTransform="translate(-5.5041955,-6.4156479)" /><linearGradient
       inkscape:collect="always"
       xlink:href="#linearGradient23"
       id="linearGradient24"
       x1="221.31825"
       y1="147.2065"
       x2="229.61336"
       y2="174.53012"
       gradientUnits="userSpaceOnUse"
       gradientTransform="translate(-5.5041955,-6.4156479)" /><linearGradient
       inkscape:collect="always"
       xlink:href="#linearGradient25"
       id="linearGradient26"
       x1="233.81654"
       y1="144.61211"
       x2="237.79633"
       y2="183.33026"
       gradientUnits="userSpaceOnUse"
       gradientTransform="translate(-5.5041955,-6.4156479)" /><linearGradient
       inkscape:collect="always"
       xlink:href="#linearGradient27"
       id="linearGradient28"
       x1="248.55675"
       y1="164.13931"
       x2="255.97299"
       y2="163.05411"
       gradientUnits="userSpaceOnUse"
       gradientTransform="translate(-5.5041955,-6.4156479)" /><linearGradient
       inkscape:collect="always"
       xlink:href="#linearGradient29"
       id="linearGradient30"
       x1="261.57446"
       y1="165.19095"
       x2="268.79459"
       y2="162.86552"
       gradientUnits="userSpaceOnUse"
       gradientTransform="translate(-5.5041955,-6.4156479)" /><linearGradient
       inkscape:collect="always"
       xlink:href="#linearGradient34"
       id="linearGradient35"
       x1="321.82147"
       y1="203.47861"
       x2="325.68359"
       y2="188.35089"
       gradientUnits="userSpaceOnUse" /><linearGradient
       inkscape:collect="always"
       xlink:href="#linearGradient36"
       id="linearGradient37"
       x1="269.63315"
       y1="213.7814"
       x2="312.4507"
       y2="213.7814"
       gradientUnits="userSpaceOnUse" /><linearGradient
       inkscape:collect="always"
       xlink:href="#linearGradient38"
       id="linearGradient39"
       x1="196.38428"
       y1="248.47255"
       x2="231.27777"
       y2="225.21841"
       gradientUnits="userSpaceOnUse" /><linearGradient
       inkscape:collect="always"
       xlink:href="#linearGradient10"
       id="linearGradient50"
       x1="164.72517"
       y1="239.19035"
       x2="198.3074"
       y2="234.22948"
       gradientUnits="userSpaceOnUse" /><radialGradient
       inkscape:collect="always"
       xlink:href="#linearGradient45"
       id="radialGradient50"
       cx="96.068184"
       cy="182.01117"
       fx="96.068184"
       fy="182.01117"
       r="72.635582"
       gradientTransform="matrix(2.3839893,-0.20365372,0.13202611,1.5455095,-148.05729,-71.745229)"
       gradientUnits="userSpaceOnUse" /><linearGradient
       inkscape:collect="always"
       xlink:href="#linearGradient1"
       id="linearGradient2"
       x1="194.09456"
       y1="166.35782"
       x2="401.86032"
       y2="404.48022"
       gradientUnits="userSpaceOnUse" /></defs><g
     inkscape:groupmode="layer"
     id="layer2"
     inkscape:label="Layer 2"
     style="display:inline"><path
       style="fill:url(#linearGradient2);stroke:none;stroke-width:1px;stroke-linecap:butt;stroke-linejoin:miter;stroke-opacity:1;fill-opacity:1"
       d="M 0,349.742 C 65.043055,335.54578 117.17199,290.85885 200.56715,257.21478 269.69863,229.32511 342.7969,222.12506 400,182 V 400 H 0 Z"
       id="path1"
       sodipodi:nodetypes="cscccc" /></g><g
     inkscape:groupmode="layer"
     id="layer3"
     inkscape:label="Layer 3"><path
       style="fill:url(#radialGradient50);stroke:#000000;stroke-width:1px;stroke-linecap:butt;stroke-linejoin:miter;stroke-opacity:1;fill-opacity:1"
       d="m 168.67002,222.92968 c 0,0 -76.583629,25.42452 -94.256775,19.22342 -6.254391,-2.19452 -27.904967,-14.26254 -36.586512,-23.25414 -8.681545,-8.9916 -9.921766,-25.73458 -7.75138,-23.87425 2.170387,1.86033 22.634029,14.5726 26.044636,17.05304 3.410607,2.48044 23.87425,3.72066 41.23734,0.93016 17.363091,-2.79049 29.765301,-13.64242 41.237341,-18.60331 11.47204,-4.96088 24.80441,-16.74298 34.72618,-23.56419 z"
       id="path3"
       sodipodi:nodetypes="cssssssc" /><path
       style="fill:url(#linearGradient39);stroke:#000000;stroke-width:1px;stroke-linecap:butt;stroke-linejoin:miter;stroke-opacity:1"
       d="m 221.68946,217.65874 c -1.24022,8.06144 -10.23182,9.30166 -13.33237,13.64243 -3.10055,4.34077 -8.9916,5.58099 -7.44132,8.68155 1.55027,3.10055 5.27093,3.72066 9.61171,4.65082 4.34077,0.93017 9.30166,5.11592 9.30166,5.11592 -3.35653,2.39061 -6.55214,4.74393 -19.22343,4.80585 0,0 -15.1927,-3.10055 -15.1927,-7.44132 0,-4.34078 -2.7905,-10.23183 0,-13.95249 2.79049,-3.72066 10.23182,-11.78209 10.23182,-11.78209 z"
       id="path7"
       sodipodi:nodetypes="csssccsscc" /><path
       style="fill:url(#linearGradient50);stroke:#000000;stroke-width:1px;stroke-linecap:butt;stroke-linejoin:miter;stroke-opacity:1"
       d="m 196.88504,217.65874 c -3.87157,12.61079 -26.13647,11.14489 -23.56419,21.08376 1.55028,6.2011 4.65083,12.4022 7.75138,12.71226 3.10055,0.31005 9.30166,0.93016 13.64243,2.17038 4.34077,1.24022 7.13127,3.41061 2.79049,5.581 -4.34077,2.17038 -14.57259,7.13127 -17.9832,6.51116 -3.4106,-0.62011 -10.85193,-1.55028 -13.95248,-4.96089 -3.10055,-3.4106 -6.2011,-12.71226 -6.82121,-20.46364 -0.62011,-7.75138 7.75138,-30.07535 7.75138,-30.07535 z"
       id="path4"
       sodipodi:nodetypes="cssssssscc" /><path
       style="fill:url(#linearGradient35);stroke:#000000;stroke-width:1px;stroke-linecap:butt;stroke-linejoin:miter;stroke-opacity:1"
       d="m 314.70602,178.28173 c 0.62011,3.72067 0.31005,6.82122 4.65082,6.82122 4.34078,0 12.71227,2.79049 17.05304,5.27094 4.34077,2.48044 20.15359,12.71226 23.25414,13.64242 3.10055,0.93017 2.48044,4.65083 -2.17039,4.65083 -4.65083,0 -19.22342,6.2011 -22.94408,4.65083 -3.72066,-1.55028 -7.44133,-4.65083 -11.47204,-6.2011 -4.03072,-1.55028 -8.68155,0.31005 -11.7821,0 -3.10055,-0.31006 -0.31006,1.55027 -8.68155,-3.41061 -8.37149,-4.96088 -13.33237,-7.13127 -13.33237,-7.13127 z"
       id="path5"
       sodipodi:nodetypes="csssssssscc" /><path
       style="fill:url(#linearGradient37);stroke:#000000;stroke-width:1px;stroke-linecap:butt;stroke-linejoin:miter;stroke-opacity:1"
       d="m 270.36812,204.01631 c 0.62011,4.34078 -1.24022,12.40221 0.62011,17.05304 1.86034,4.65083 1.16096,5.41237 4.34078,7.44132 3.72066,2.37405 14.35335,-0.23482 19.31423,-1.47504 4.96089,-1.24022 19.75272,-5.03612 16.96222,-7.2065 -2.79049,-2.17039 -4.65082,-2.7905 -10.85193,-3.10055 -6.2011,-0.31006 -8.17428,2.67764 -10.65472,-3.83351 -2.48044,-6.51116 -2.58684,-10.17863 -2.58684,-13.89929 0,-3.72066 -17.14385,5.02053 -17.14385,5.02053 z"
       id="path6"
       sodipodi:nodetypes="csssssssc" /><path
       style="fill:url(#linearGradient11);stroke:#000000;stroke-width:1px;stroke-linecap:butt;stroke-linejoin:miter;stroke-opacity:1"
       d="m 368.3676,193.70013 c -11.47204,-17.05303 -11.7821,-23.87425 -17.67315,-29.45525 -5.89104,-5.58099 -17.36309,-13.33237 -28.21502,-13.64243 -10.85193,-0.31005 -11.47204,-2.79049 -18.60331,-6.51116 -5.667,-2.9567 -30.38541,-4.65082 -35.65635,-4.65082 -5.27093,0 -24.15509,-3.11129 -35.34629,-2.17039 -11.46832,0.96421 -43.83119,12.72945 -50.22894,17.67315 -6.82122,5.27093 -16.43292,16.74298 -19.84353,23.87426 -2.04198,4.2696 -5.89105,17.36309 -4.96088,22.63402 0.93016,5.27094 3.4106,11.7821 8.37149,16.74298 4.96088,4.96089 16.43292,7.75138 23.56419,7.13127 7.13127,-0.62011 37.51668,-7.13126 41.85745,-8.99159 4.34077,-1.86033 41.85745,-13.64243 51.46916,-15.50277 9.61171,-1.86033 41.75095,-5.05946 47.7485,-5.58099 7.13127,-0.62011 31.5583,2.80188 33.17591,3.72066 6.89696,3.91738 6.48745,-3.6013 4.34077,-5.27094 z"
       id="path2"
       sodipodi:nodetypes="cssssssssssssssc" /><path
       style="fill:url(#linearGradient18);stroke:none;stroke-width:1px;stroke-linecap:butt;stroke-linejoin:miter;stroke-opacity:0"
       d="m 169.51201,167.87243 c 1.60782,-2.94405 3.4161,-5.03933 5.82873,-6.90451 l 23.92722,28.61889 z"
       id="path11"
       sodipodi:nodetypes="cccc" /><path
       style="fill:url(#linearGradient20);stroke:none;stroke-width:1px;stroke-linecap:butt;stroke-linejoin:miter;stroke-opacity:0"
       d="m 183.57495,153.71413 c 1.17652,-0.99903 3.93209,-2.598 7.25218,-3.81014 l 24.96378,52.62913 z"
       id="path12"
       sodipodi:nodetypes="cccc" /><path
       style="fill:url(#linearGradient22);stroke:none;stroke-width:1px;stroke-linecap:butt;stroke-linejoin:miter;stroke-opacity:1"
       d="m 199.29617,146.56215 c 2.07405,-1.25277 4.5876,-2.314 7.12926,-2.71943 l 12.79356,41.35925 z"
       id="path13"
       sodipodi:nodetypes="cccc" /><path
       style="fill:url(#linearGradient24);stroke:none;stroke-width:1px;stroke-linecap:butt;stroke-linejoin:miter;stroke-opacity:1"
       d="m 212.34611,141.88284 c 2.00422,-0.91674 4.30763,-1.85105 7.43979,-2.38735 l 4.91414,30.79801 z"
       id="path14"
       sodipodi:nodetypes="cccc" /><path
       style="fill:url(#linearGradient26);stroke:none;stroke-width:1px;stroke-linecap:butt;stroke-linejoin:miter;stroke-opacity:1"
       d="m 225.21376,138.1656 7.15976,39.58214 -1.36865,-40.6795 c -2.22751,-0.10346 -4.18566,0.35833 -5.79111,1.09736 z"
       id="path15"
       sodipodi:nodetypes="cccc" /><path
       style="fill:url(#linearGradient28);stroke:none;stroke-width:1px;stroke-linecap:butt;stroke-linejoin:miter;stroke-opacity:1"
       d="m 241.80093,139.81885 5.91954,35.07874 c 0,0 3.06939,-16.22392 2.85014,-17.53937 -0.21924,-1.31545 -4.60408,-16.88165 -4.60408,-16.88165 -1.58059,-0.98747 -2.89066,-0.89287 -4.1656,-0.65772 z"
       id="path16"
       sodipodi:nodetypes="ccscc" /><path
       style="fill:url(#linearGradient30);stroke:none;stroke-width:1px;stroke-linecap:butt;stroke-linejoin:miter;stroke-opacity:1"
       d="m 254.07849,145.08066 5.70029,26.30905 0.21924,-16.88164 z"
       id="path17" /><path
       style="fill:#e8e1c6;stroke:#000000;stroke-width:1px;stroke-linecap:butt;stroke-linejoin:miter;stroke-opacity:1;fill-opacity:1"
       d="m 327.76698,163.33538 c -0.43849,-6.35802 -1.31545,-6.35802 1.31545,-12.4968 2.63091,-6.13878 8.76969,-6.57726 8.76969,-10.74286 0,-4.1656 4.38484,3.72711 4.38484,3.72711 0,0 2.6309,7.45424 0.87697,10.08514 -1.75394,2.63091 -4.38484,7.01575 -4.1656,10.52362 0.21924,3.50788 -1.09621,7.67348 -1.09621,7.67348 z"
       id="path32" /><path
       style="fill:#211a0a;stroke:#000000;stroke-width:1px;stroke-linecap:butt;stroke-linejoin:miter;stroke-opacity:1;fill-opacity:1"
       d="m 323.38214,159.82751 c 0,0 5.48105,6.35802 7.23499,9.20817 1.75393,2.85015 6.57726,6.57726 9.64665,8.11196 3.06939,1.53469 8.3312,3.50787 9.64665,5.04257 1.31546,1.53469 3.28864,4.82332 5.04257,7.23499 1.75394,2.41166 5.91954,2.85014 5.91954,2.85014 0,0 -3.06939,-5.04256 -5.26181,-7.89271 -2.19242,-2.85015 -3.28863,-4.82333 -6.35802,-6.79651 -3.06939,-1.97318 -6.13878,-1.75393 -9.8659,-5.04257 -3.72711,-3.28863 -10.52362,-12.71604 -12.4968,-13.37377 -1.97318,-0.65772 -3.50787,0.65773 -3.50787,0.65773 z"
       id="path31" /><path
       style="fill:#211a0a;stroke:#000000;stroke-width:1px;stroke-linecap:butt;stroke-linejoin:miter;stroke-opacity:1;fill-opacity:1"
       d="m 332.59031,165.74705 c 0.43848,-3.28863 0,-11.18135 1.09621,-12.71605 1.09621,-1.53469 4.38484,-5.91953 4.1656,-7.01574 -0.21925,-1.09621 1.75393,1.09621 1.53469,3.28863 -0.21924,2.19242 -1.53469,3.94636 -2.19242,6.13878 -0.65773,2.19242 -1.53469,8.3312 -1.53469,10.08514 0,1.75393 -3.06939,0.21924 -3.06939,0.21924 z"
       id="path33" /><path
       style="fill:#000000;stroke:#000000;stroke-width:1px;stroke-linecap:butt;stroke-linejoin:miter;stroke-opacity:1;fill-opacity:1"
       d="m 342.76601,178.12671 c 0.31006,-2.01536 1.08519,-4.96089 3.41061,-4.96089 2.32541,0 4.96088,1.39525 4.96088,2.94553 0,1.55027 0.46508,5.42596 -1.7053,5.73602 -2.17039,0.31005 -6.66619,-3.72066 -6.66619,-3.72066 z"
       id="path34" /></g></svg>
